<svg xmlns="http://www.w3.org/2000/svg" version="1.1" xlink="http://www.w3.org/1999/xlink" xmlns:svgjs="http://svgjs.com/svgjs" width="100%" height="100%" viewBox="4.699999809265137 26.2030029296875 90.60000610351562 47.69099426269531"><g fill="#0f7b3e"><path d="M78.102 39.301c-2 0-3.898.398-5.7 1l-3.198-7-1.399-3.102h6.2c.898 0 1.601.7 1.601 1.602 0 .898-.7 1.602-1.602 1.602-.898 0-1.601.699-1.601 1.601 0 .899.699 1.602 1.601 1.602 2.602 0 4.7-2.102 4.7-4.7a4.694 4.694 0 0 0-4.7-4.699h-7.199c-.8 0-1.601.399-2.101 1.102-.5.7-.5 1.602-.2 2.398l1 2.102-23.602 3.898-2.398-7.3h2.8c.9 0 1.602-.7 1.602-1.602 0-.898-.699-1.602-1.601-1.602h-9.5c-.899 0-1.602.7-1.602 1.602 0 .898.7 1.602 1.602 1.602h3.5L39 38l-1.3 1.2c-4.302-4-9.9-6.2-15.802-6.2-.898 0-1.601.7-1.601 1.602 0 .898.699 1.602 1.601 1.602 5.102 0 9.801 1.898 13.602 5.199l-2.3 2.199c-3-2.602-7-4.3-11.302-4.3C12.398 39.301 4.7 47 4.7 56.5s7.7 17.2 17.2 17.2c8.898 0 16.3-6.9 17.101-15.603H40.9c.7 2.7 3.101 4.7 6 4.7 3.398 0 6.2-2.801 6.2-6.2 0-1.199-.4-2.398-1-3.398l15.198-16.301 2.2 4.898c-5.102 3-8.602 8.5-8.602 14.898 0 9.5 7.699 17.2 17.199 17.2C87.6 73.896 95.3 65.998 95.3 56.497S87.6 39.3 78.1 39.3zm-14.602-3L49.801 51c-.898-.5-1.898-.8-2.898-.8h-.5l-3.5-10.603zm-20.102 15c-1.3.8-2.2 2.102-2.602 3.7H39c-.3-3.4-1.601-6.5-3.699-9.102l4.801-4.5zM33 48.001c1.5 2 2.5 4.3 2.8 6.898h-10zm-11.102 22.6c-7.8 0-14.102-6.3-14.102-14.102s6.3-14.102 14.102-14.102c3.398 0 6.5 1.301 9 3.301l-8.2 7.8c-.698-.198-1.398-.198-2 .102-.398.2-.698.399-1 .7s-.5.699-.698 1c-.2.398-.2.8-.2 1.199 0 .8.301 1.601.899 2.199.3.3.699.5 1 .7.398.198.8.198 1.199.198.398 0 .8-.101 1.2-.199a3.606 3.606 0 0 0 1-.699c.198-.2.3-.398.398-.7h11.3C35 65.102 29.102 70.603 21.9 70.603zm25-11a3.117 3.117 0 0 1-3.102-3.101c0-1.7 1.399-3.102 3.102-3.102 1.7 0 3.102 1.398 3.102 3.102a3.117 3.117 0 0 1-3.102 3.101zm31.203 11c-7.8 0-14.102-6.3-14.102-14.102 0-5.101 2.8-9.5 6.8-12l4.7 10.2c-.102.198-.3.398-.398.6-.2.4-.2.802-.2 1.2s.102.8.2 1.2c.199.398.398.698.699 1 .199.198.3.3.5.398.199.101.3.199.5.3.199.102.398.102.601.2.2.101.399.101.602.101.2 0 .398 0 .601-.101.2 0 .399-.102.602-.2.2-.101.398-.199.602-.3.199-.102.3-.2.5-.399.3-.3.5-.601.699-1 .199-.398.3-.8.3-1.199s-.101-.8-.3-1.2a3.63 3.63 0 0 0-.7-1c-.199-.1-.3-.198-.5-.398-.199-.101-.398-.199-.601-.3-.2-.102-.398-.2-.602-.2h-.3l-4.7-10.199c1.399-.5 2.899-.8 4.399-.8 7.8 0 14.102 6.3 14.102 14.102C92.1 64.3 85.898 70.603 78.1 70.603z"></path></g></svg>